<svg version="1.1" id="Layer_1" xmlns="http://www.w3.org/2000/svg" xmlns:xlink="http://www.w3.org/1999/xlink" x="0px" y="0px"
	 width="100%" viewBox="0 0 512 512" enable-background="new 0 0 512 512" xml:space="preserve">
<path fill="#000000" opacity="1.000000" stroke="none" 
	d="
M269.827148,288.999878 
	C269.784973,256.835999 269.736847,225.172195 269.702118,193.508392 
	C269.694946,186.986633 269.883362,186.726151 276.459167,186.838730 
	C289.770538,187.066589 288.241791,184.510269 288.285736,198.796097 
	C288.337555,215.627991 288.288666,232.460175 288.330627,249.292130 
	C288.334198,250.713120 287.829559,252.271210 289.167358,253.856796 
	C291.104492,252.024338 292.860809,250.075760 294.896393,248.484406 
	C307.177368,238.883591 320.939178,237.448730 334.929535,243.169479 
	C348.586365,248.753876 356.009186,259.838440 358.395477,274.432434 
	C360.731995,288.722046 358.766754,302.000366 349.577301,313.551361 
	C334.488251,332.518005 305.009613,332.301361 289.920227,313.268616 
	C289.526031,312.771423 289.072235,312.321503 288.359100,311.531342 
	C286.533539,314.512878 287.908203,317.255127 288.003174,319.884918 
	C288.133331,323.489990 287.090668,325.475464 282.943390,325.384338 
	C268.164948,325.059479 269.841370,327.421051 269.750244,312.497131 
	C269.703430,304.831848 269.796234,297.165680 269.827148,288.999878 
M311.097473,255.426025 
	C298.958130,257.608429 291.604431,264.798187 288.806000,276.744537 
	C287.920013,280.526733 288.189423,284.384827 288.404938,288.181641 
	C289.445709,306.521027 310.850922,318.810028 326.605438,310.206665 
	C338.993835,303.441589 344.574005,289.536926 340.357239,274.539062 
	C337.597168,264.722107 329.362000,253.943878 311.097473,255.426025 
z"/>
<path fill="#000000" opacity="1.000000" stroke="none" 
	d="
M128.033386,319.167725 
	C109.991379,330.181274 91.341789,329.180664 72.387665,323.539368 
	C66.633698,321.826813 61.228199,319.246918 56.004505,316.251007 
	C53.440075,314.780243 52.679352,313.347900 54.556564,310.753815 
	C57.084732,307.260254 58.636223,302.103394 61.991879,300.418091 
	C65.804794,298.503174 69.514389,303.394226 73.297516,305.186005 
	C84.694511,310.583832 96.476540,312.193085 108.733871,309.585754 
	C116.265648,307.983643 121.618225,303.437073 123.830475,295.878693 
	C126.066994,288.237366 124.418388,281.451019 118.738411,275.699219 
	C112.868118,269.754669 105.445732,266.312012 98.067284,262.855621 
	C89.923042,259.040497 81.750435,255.307877 74.382301,250.078171 
	C63.407047,242.288223 57.910385,231.748428 59.846989,218.274475 
	C61.605549,206.039261 69.730385,198.330307 80.702759,194.126770 
	C99.627388,186.876724 117.876373,189.529419 135.269028,199.557938 
	C138.356644,201.338242 139.250244,203.134583 136.831726,206.216629 
	C134.484726,209.207581 133.159637,213.790207 130.183472,215.293365 
	C126.639259,217.083420 123.747856,212.311661 120.378571,210.761856 
	C110.519470,206.226898 100.389229,205.985321 90.136703,208.468353 
	C84.307755,209.880051 79.981506,213.516388 78.486366,219.640244 
	C76.921028,226.051636 78.841614,231.483948 83.699364,235.875931 
	C89.736961,241.334641 97.218056,244.305054 104.412231,247.757950 
	C112.956566,251.858841 121.651733,255.591278 129.093887,261.743225 
	C148.636978,277.898254 148.381821,303.641388 128.033386,319.167725 
z"/>
<path fill="#000000" opacity="1.000000" stroke="none" 
	d="
M160.728271,268.115356 
	C167.554153,250.721436 180.037094,241.140884 198.266113,240.100189 
	C210.838821,239.382401 221.248413,244.419327 228.886078,255.385986 
	C230.645813,252.422546 229.769592,249.571320 229.894531,246.925262 
	C230.028717,244.083801 231.008301,242.819122 234.035797,242.616760 
	C247.360199,241.726074 247.354309,241.646072 247.353043,255.071701 
	C247.350998,276.566528 247.222046,298.062714 247.448563,319.555145 
	C247.497971,324.243835 245.953079,325.576538 241.448517,325.420807 
	C229.333832,325.001953 230.030182,327.083801 230.016724,314.240723 
	C230.015869,313.424042 229.840561,312.607544 229.762283,311.928589 
	C228.788345,311.296448 228.355103,311.853699 228.017319,312.406677 
	C217.151382,330.194763 191.525833,331.335419 176.669861,320.728516 
	C160.939957,309.497650 156.876648,293.064697 159.136703,275.313293 
	C159.428757,273.019501 160.130417,270.777863 160.728271,268.115356 
M177.560211,274.184662 
	C175.833298,279.700562 175.623703,285.368744 176.945786,290.899597 
	C180.105942,304.119965 190.912323,313.048126 203.018646,312.863861 
	C217.030731,312.650574 225.982697,304.974518 229.314178,290.316162 
	C232.654205,275.620117 224.678436,260.403564 211.586716,256.494690 
	C197.077942,252.162796 183.541000,258.963318 177.560211,274.184662 
z"/>
<path fill="#000000" opacity="1.000000" stroke="none" 
	d="
M400.264038,241.838043 
	C424.188385,236.442352 444.441437,245.052155 452.933899,265.534332 
	C465.173737,295.054413 447.623535,326.283020 414.981598,327.526794 
	C394.769836,328.296967 373.626099,315.715149 369.975403,290.274017 
	C367.167664,270.707275 377.211304,249.102036 400.264038,241.838043 
M418.528290,312.105072 
	C432.484772,308.488281 439.808960,298.171967 439.647583,282.358124 
	C439.452881,263.278259 421.956757,250.986267 403.982208,257.301239 
	C393.083801,261.130127 387.868073,270.856873 387.157562,285.007874 
	C386.333954,301.411896 402.105255,315.219818 418.528290,312.105072 
z"/>
</svg>